<svg xmlns="http://www.w3.org/2000/svg" viewBox="0 0 133.99 122.92"><title>Untitled-1</title><path d="M120.28,65.54a8.19,8.19,0,0,1,8.19,8.19h0L129,100.65a2.3,2.3,0,0,0,1.72,2.18q1,0.26,2,.57a2.3,2.3,0,0,0,2.8-1.27l9.25-21.24h0a8.19,8.19,0,0,1,15,6.48h0l-9,26a2.29,2.29,0,0,0,.43,2.25q1,1.12,1.85,2.31a2.3,2.3,0,0,0,3.42.3l10.73-10.15h0a7.51,7.51,0,0,1,10.62,10.62c-0.14.14-.29,0.27-0.44,0.4l-12,11a16.4,16.4,0,0,0-3.25,4.11l-2.33,4.19a16.37,16.37,0,0,0-1.44,3.47,62.2,62.2,0,0,1-2.8,7.82,49,49,0,0,1-7.08,12.27,41.72,41.72,0,0,1-29.75,12.52,42.2,42.2,0,0,1-36.09-20.67,16.48,16.48,0,0,0-1.84-2.49L62.26,130.69a8.53,8.53,0,0,1,12.25-11.86h0L81,124.05a2.27,2.27,0,0,0,1.43.5,2.31,2.31,0,0,0,2-1.24,40.62,40.62,0,0,1,5.36-7.85,2.29,2.29,0,0,0,.4-2.37L79.87,87.34a8.19,8.19,0,1,1,15-6.49h0L105,102.34a2.29,2.29,0,0,0,2.08,1.32,2.32,2.32,0,0,0,.73-0.12q1.2-.39,2.43-0.71a2.29,2.29,0,0,0,1.71-2.21l0.13-26.87h0a8.19,8.19,0,0,1,8.19-8.19m0-7a15.21,15.21,0,0,0-15.19,15.19v0.09L105,85.93,101.29,78A15.19,15.19,0,0,0,73.41,90l9.34,23.1q-0.79,1-1.52,2.1l-2.1-1.68A15.63,15.63,0,0,0,77.24,112l-0.19-.15h0A15.53,15.53,0,0,0,57.09,135.4L75.58,156a9.5,9.5,0,0,1,1.06,1.43,48.74,48.74,0,0,0,76.81,9.45l0.27-.28,0.24-.31A55.9,55.9,0,0,0,162,152.37a69.46,69.46,0,0,0,3.07-8.59,9.38,9.38,0,0,1,.82-2l2.33-4.19a9.38,9.38,0,0,1,1.86-2.36L182,124.31c0.27-.23.51-0.46,0.74-0.68A14.51,14.51,0,0,0,162.31,103l-0.85.8,4.86-14a15.22,15.22,0,0,0,.52-1.51l0.39-1.12L167.16,87a15.19,15.19,0,0,0-28.86-8.91l0,0.1-2.59,6-0.2-10.49a15.21,15.21,0,0,0-15.19-15.11h0Z" transform="translate(-53.01 -58.54)"/></svg>